<svg width="80" height="72" viewBox="0 0 80 72" fill="none" xmlns="http://www.w3.org/2000/svg">
<path d="M44.44 14.88L42.16 26.44C41.68 28.8 42.32 31.24 43.84 33.08C45.36 34.92 47.6 36 50 36H72V40.32L61.72 64H29.36C28.64 64 28 63.36 28 62.64V31.28L44.44 14.88ZM48 0L22.36 25.64C20.84 27.16 20 29.2 20 31.32V62.64C20 67.8 24.2 72 29.36 72H61.76C64.6 72 67.2 70.52 68.64 68.12L79.32 43.52C79.76 42.52 80 41.44 80 40.32V36C80 31.6 76.4 28 72 28H50L53.68 9.4C53.88 8.52 53.76 7.56 53.36 6.76C52.44 4.96 51.28 3.32 49.84 1.88L48 0ZM8 28H0V72H8C10.2 72 12 70.2 12 68V32C12 29.8 10.2 28 8 28Z" fill="#EB3223"/>
</svg>
